<svg id="Guides" xmlns="http://www.w3.org/2000/svg" viewBox="0 0 1500 354.06"><path d="M486,206.27h4.53l.19.26a35.87,35.87,0,0,0,15.9,11.76,62.48,62.48,0,0,0,23.34,4.07q13.88,0,23.81-4.72A36.41,36.41,0,0,0,569,204.74a33.19,33.19,0,0,0,5.36-18.55q0-11.26-6.9-18.25c-.65-.65-1.33-1.29-2.07-1.91l-.76-.61h0c-.69-.55-1.41-1.07-2.18-1.58h0c-.76-.52-1.57-1-2.41-1.49h0a65.22,65.22,0,0,0-13.78-5.69l-9.74-3q-8.36-2.53-12-5.79l-.44-.41a10.06,10.06,0,0,1-3-5.21,10.27,10.27,0,0,1-.22-1.69,2.44,2.44,0,0,1,0-.27,2.62,2.62,0,0,1,0-.28,10.7,10.7,0,0,1,2.18-6.48,15.63,15.63,0,0,1,6.45-4.83,25.29,25.29,0,0,1,10.31-1.88,27.28,27.28,0,0,1,10.7,1.91,17.1,17.1,0,0,1,7,5.22,13.1,13.1,0,0,1,2.68,7.75H582a30.69,30.69,0,0,0-5.3-18.07,33.47,33.47,0,0,0-14.84-11.58q-9.54-4-22.35-4H408.24a18.32,18.32,0,0,0,18.32,18.32h74.87a31.67,31.67,0,0,0-4.27,16.5,32.66,32.66,0,0,0,.39,5H430.14a18.32,18.32,0,0,0,18.32,18.32H510a53,53,0,0,0,10,5.08q2.36.9,5,1.71l9.5,3q9,2.76,12.46,5.87c.29.26.56.53.82.8a10.43,10.43,0,0,1,2.67,7.28,11.2,11.2,0,0,1-1.23,5.3c-.15.28-.31.55-.49.82a8.27,8.27,0,0,1-.57.79c-.1.13-.2.26-.31.38s-.22.25-.34.37l-.35.36a17.32,17.32,0,0,1-6.45,3.92,30.57,30.57,0,0,1-10.43,1.64,31.16,31.16,0,0,1-11.5-2,20.67,20.67,0,0,1-8.13-5.48,15.39,15.39,0,0,1-2-2.78l-.18-.36a9.58,9.58,0,0,0-7.79-5H453.22a18.33,18.33,0,0,0,18.32,18.33H486Z"/><path d="M602.62,220.55,613,171.69a23.81,23.81,0,0,1,3.95-8.89,20.06,20.06,0,0,1,6.94-6,19.06,19.06,0,0,1,9-2.19q6.52,0,10.43,3.57a11.83,11.83,0,0,1,3.91,9.16,24.15,24.15,0,0,1-.19,3c-.12,1-.32,2.18-.57,3.41l-10,46.86h21.78L669,170.08c.35-1.73.62-3.45.8-5.13a45.13,45.13,0,0,0,.27-4.76,23.17,23.17,0,0,0-3.18-12,22.63,22.63,0,0,0-8.94-8.48,28,28,0,0,0-13.5-3.1,30.82,30.82,0,0,0-26.69,14.11h-.46l8.82-40.8H604.3L580.76,220.55Z"/><path d="M709.61,127.29a11,11,0,0,0,8.28-3.53,11.69,11.69,0,0,0,3.38-8.36,11.52,11.52,0,0,0-3.38-8.36,11.66,11.66,0,0,0-16.56,0A11.52,11.52,0,0,0,698,115.4a11.69,11.69,0,0,0,3.38,8.36A11,11,0,0,0,709.61,127.29Z"/><polygon points="715.67 138.1 693.73 138.1 676.25 220.55 698.18 220.55 715.67 138.1"/><path d="M766.06,221.85A34.53,34.53,0,0,0,782.24,218a39.73,39.73,0,0,0,13-10.89,52.26,52.26,0,0,0,8.59-16.49,66.57,66.57,0,0,0,3.07-20.67,41.15,41.15,0,0,0-3.49-17.64,26.33,26.33,0,0,0-9.93-11.47,28.4,28.4,0,0,0-15.34-4,31,31,0,0,0-14.61,3.56,29.77,29.77,0,0,0-11.08,10H752l2.68-12.27h-21.4l-19.35,94.05H478.34a18.32,18.32,0,0,0,18.32,18.32H724a9.54,9.54,0,0,0,7.7-3.89,9.69,9.69,0,0,0,1.67-3.74l7.42-37.71h.46a22.69,22.69,0,0,0,5.13,8.82,24.27,24.27,0,0,0,8.52,5.83A28.73,28.73,0,0,0,766.06,221.85Zm-15.69-23.46q-4.41-5-4.41-13a39.56,39.56,0,0,1,1.69-11.58,34.24,34.24,0,0,1,4.76-9.85,23.21,23.21,0,0,1,7.28-6.79,18.12,18.12,0,0,1,9.28-2.46q7.29,0,11.43,4.95t4.14,13.46a39.58,39.58,0,0,1-1.72,11.93,32.89,32.89,0,0,1-4.76,9.62,22.07,22.07,0,0,1-7.13,6.41,18.05,18.05,0,0,1-8.86,2.26A14.86,14.86,0,0,1,750.37,198.39Z"/><path d="M930.73,220.55,940.24,176a32.32,32.32,0,0,1,4.29-10.74,18.26,18.26,0,0,1,7.17-6.44,22.68,22.68,0,0,1,10.17-2.15,27.94,27.94,0,0,1,6.29.69,21.42,21.42,0,0,1,5.06,1.77l4.29-20.25a24.14,24.14,0,0,0-4.52-1.42,27.78,27.78,0,0,0-5.91-.58,22.8,22.8,0,0,0-12.61,3.53,26.74,26.74,0,0,0-8.79,9.21h-.46l2.3-11.51H926.36l-17.57,82.45Z"/><path d="M1039.1,232.11H753.15a18.33,18.33,0,0,0,18.32,18.33h286A18.33,18.33,0,0,0,1039.1,232.11Z"/><path d="M813.49,128.87h17.87l-19.44,91.68h23.32l7.44-34.36h21.24q14.26,0,25.12-5.33a40.36,40.36,0,0,0,17-15.15q6.1-9.81,6.1-23.39a31.9,31.9,0,0,0-4.49-17.14A30.26,30.26,0,0,0,895,113.9a42.89,42.89,0,0,0-19.14-4H860.22v0H795.16v.69A18.33,18.33,0,0,0,813.49,128.87Zm41.31,0h15.57q8.5,0,13.34,3.95t4.83,11.62a23.27,23.27,0,0,1-3.06,12.12,20.5,20.5,0,0,1-8.71,7.93,29.17,29.17,0,0,1-13.15,2.8H846.44Z"/><path d="M1020.8,136.26h-.57a44.8,44.8,0,0,0-18.29,3.68,44,44,0,0,0-14.5,10.32,47.27,47.27,0,0,0-9.58,15.64,54.6,54.6,0,0,0-3.42,19.52,39.15,39.15,0,0,0,4.64,19.37,32.83,32.83,0,0,0,13,13,39.67,39.67,0,0,0,19.55,4.64,43.94,43.94,0,0,0,32.79-14,46.85,46.85,0,0,0,9.59-15.61,55,55,0,0,0,3.41-19.6,39.43,39.43,0,0,0-4.24-18.57h20.25a18.32,18.32,0,0,0,18.32-18.32Zm10.06,23.39q4.25,5.29,4.25,14a39.19,39.19,0,0,1-2.95,15.57,27.45,27.45,0,0,1-8.09,11,18.41,18.41,0,0,1-11.74,4.06,13.93,13.93,0,0,1-11.42-5.33q-4.3-5.33-4.3-14.07a39.49,39.49,0,0,1,2.95-15.61,26.58,26.58,0,0,1,8.13-10.93,18.7,18.7,0,0,1,8.78-3.77h5.67A13.63,13.63,0,0,1,1030.86,159.65Z"/></svg>